# AST/ASF file generated using VICON BodyLanguage
# -----------------------------------------------
:version 1.10
:name VICON
:units
  mass 1.0
  length 0.45
  angle deg
:documentation
   .ast/.asf automatically generated from VICON data using
   VICON BodyBuilder and BodyLanguage model FoxedUp or BRILLIANT.MOD
:root
   order TX TY TZ RX RY RZ
   axis XYZ
   position 0 0 0  
   orientation 0 0 0 
:bonedata
  begin
     id 1 
     name lhipjoint
     direction 0.653368 -0.678499 0.335782 
     length 2.51848 
     axis 0 0 0  XYZ
  end
  begin
     id 2 
     name lfemur
     direction 0.34202 -0.939693 0  
     length 6.57749  
     axis 0 0 20  XYZ
    dof rx ry rz
    limits (-160.0 20.0)
           (-70.0 70.0)
           (-60.0 70.0)
  end
  begin
     id 3 
     name ltibia
     direction 0.34202 -0.939693 0   
     length 7.94618   
     axis 0 0 20   XYZ
    dof rx
    limits (-10.0 170.0)
  end
  begin
     id 4 
     name lfoot
     direction 0.0811271 -0.222895 0.971461   
     length 2.31339   
     axis -90 7.62852e-016 20   XYZ
    dof rx rz
    limits (-45.0 90.0)
           (-70.0 20.0)
  end
  begin
     id 5 
     name ltoes
     direction 1.53568e-011 -4.21885e-011 1   
     length 1.15935   
     axis -90 7.62852e-016 20   XYZ
    dof rx
    limits (-90.0 20.0)
  end
  begin
     id 6 
     name rhipjoint
     direction -0.640058 -0.688614 0.340788   
     length 2.48149  
     axis 0 0 0  XYZ 
  end
  begin
     id 7 
     name rfemur
     direction -0.34202 -0.939693 0   
     length 6.57875   
     axis 0 0 -20   XYZ
    dof rx ry rz
    limits (-160.0 20.0)
           (-70.0 70.0)
           (-70.0 60.0)
  end
  begin
     id 8 
     name rtibia
     direction -0.34202 -0.939693 0   
     length 7.977   
     axis 0 0 -20   XYZ
    dof rx
    limits (-10.0 170.0)
 end
 begin
     id 9 
     name rfoot
     direction -0.0979793 -0.269196 0.958089   
     length 2.19857  
     axis -90 -7.62852e-016 -20   XYZ
    dof rx rz
    limits (-45.0 90.0)
           (-20.0 70.0)
  end
  begin
     id 10 
     name rtoes
     direction -1.53556e-011 -4.21868e-011 1   
     length 1.09838   
     axis -90 -7.62852e-016 -20   XYZ
    dof rx
    limits (-90.0 20.0)
  end
  begin
     id 11 
     name lowerback
     direction 0.0149039 0.998517 -0.0523597   
     length 2.10809   
     axis 0 0 0   XYZ
    dof rx ry rz
    limits (-20.0 45.0)
           (-30.0 30.0)
           (-30.0 30.0)
  end
  begin
     id 12 
     name upperback
     direction -0.00882659 0.999418 -0.0329624   
     length 2.1102   
     axis 0 0 0   XYZ
    dof rx ry rz
    limits (-20.0 45.0)
           (-30.0 30.0)
           (-30.0 30.0)
  end
  begin
     id 13 
     name thorax
     direction -0.0165585 0.999826 -0.0085833   
     length 2.11039   
     axis 0 0 0   XYZ
    dof rx ry rz
    limits (-20.0 45.0)
           (-30.0 30.0)
           (-30.0 30.0)
  end
  begin
     id 14 
     name lowerneck
     direction -0.0130877 0.999911 0.00260353   
     length 1.73253   
     axis 0 0 0   XYZ
    dof rx ry rz
    limits (-20.0 45.0)
           (-30.0 30.0)
           (-30.0 30.0)
  end
  begin
     id 15 
     name upperneck
     direction -0.0348454 0.928205 -0.370435   
     length 1.66692   
     axis 0 0 0   XYZ
    dof rx ry rz
    limits (-20.0 45.0)
           (-30.0 30.0)
           (-30.0 30.0)
  end
  begin
     id 16
     name head
     direction -0.00807754 0.992494 -0.122026  
     length 1.72765  
     axis 0 0 0   XYZ
    dof rx ry rz
    limits (-20.0 45.0)
           (-30.0 30.0)
           (-30.0 30.0)
  end
  begin
     id 17 
     name lclavicle
     direction 0.987582 0.144023 0.0627671  
     length 3.49235  
     axis 0 0 0   XYZ
    dof ry rz
    limits (-20.0 10.0)
           (0.0 20.0)
  end
  begin
     id 18 
     name lhumerus
     direction 1 -4.48958e-011 -1.45183e-018   
     length 5.41917   
     axis 180 -30 -90   XYZ
    dof rx ry rz
    limits (-60.0 90.0)
           (-90.0 90.0)
           (-90.0 90.0)
  end
  begin
     id 19
     name lradius
     direction 1 -4.48999e-011 5.75106e-027   
     length 2.44373   
     axis 180 -30 -90   XYZ
    dof rx
    limits (-10.0 170.0)
  end
  begin
     id 20
     name lwrist
     direction 1 -4.48987e-011 1.53461e-026   
     length 1.22186   
     axis -1.09697e-014 90 90   XYZ
    dof ry
    limits (-180.0 0.0)
 end
  begin
     id 21 
     name lhand
     direction 1 -4.48881e-011 3.06923e-026   
     length 0.727502   
     axis -1.95843e-014 90 90   XYZ
    dof rx rz
    limits (-90.0 90.0)
           (-45.0 45.0)
  end
  begin
     id 22 
     name lfingers
     direction 1 -4.48907e-011 6.13845e-026   
     length 0.586531   
     axis -3.91686e-014 90 90   XYZ
    dof rx
    limits (0.0 90.0)
  end
  begin
     id 23
     name lthumb
     direction 0.707107 -6.3487e-011 0.707107   
     length 0.842145   
     axis -90 45 2.85299e-015   XYZ
    dof rx rz
    limits (-45.0 45.0)
           (-45.0 45.0)
  end
  begin
     id 24 
     name rclavicle
     direction -0.980998 0.169556 0.0943023   
     length 3.29272  
     axis 0 0 0   XYZ 
    dof ry rz
    limits (-10.0 20.0)
           (-20.0 0.0)
  end
  begin
     id 25 
     name rhumerus
     direction -1 -1.83355e-005 2.45537e-005  
     length 5.58976   
     axis 180 30 90   XYZ
    dof rx ry rz
    limits (-90.0 60.0)
           (-90.0 90.0)
           (-90.0 90.0)
  end
  begin
     id 26 
     name rradius
     direction -1 -4.48967e-011 5.97228e-027   
     length 2.4806   
     axis 180 30 90   XYZ
    dof rx
    limits (-10.0 170.0)
  end
  begin
     id 27 
     name rwrist
     direction -1 -4.48963e-011 1.53461e-026   
     length 1.2403   
     axis -1.09697e-014 -90 -90   XYZ
    dof ry
    limits (-180.0 0.0)
  end
  begin
     id 28
     name rhand
     direction -1 -4.48881e-011 3.06923e-026   
     length 0.816009   
     axis -1.95843e-014 -90 -90   XYZ
    dof rx rz
    limits (-90.0 90.0)
           (-45.0 45.0)
  end
  begin
     id 29
     name rfingers
     direction -1 -4.49018e-011 6.13845e-026   
     length 0.657887   
     axis -3.91686e-014 -90 -90   XYZ
    dof rx
    limits (0.0 90.0)
  end
  begin
     id 30
     name rthumb
     direction -0.707107 -6.34872e-011 0.707107   
     length 0.944599   
     axis -90 -45 -2.85299e-015   XYZ
    dof rx rz
    limits (-45.0 45.0)
           (-45.0 45.0)
  end
:hierarchy
  begin
    root lhipjoint rhipjoint lowerback
    lhipjoint lfemur
    lfemur ltibia
    ltibia lfoot
    lfoot ltoes
    rhipjoint rfemur
    rfemur rtibia
    rtibia rfoot
    rfoot rtoes
    lowerback upperback
    upperback thorax
    thorax lowerneck lclavicle rclavicle
    lowerneck upperneck
    upperneck head
    lclavicle lhumerus
    lhumerus lradius
    lradius lwrist
    lwrist lhand lthumb
    lhand lfingers
    rclavicle rhumerus
    rhumerus rradius
    rradius rwrist
    rwrist rhand rthumb
    rhand rfingers
  end

#!OML:ASF F:\VICON\USERDATA\INSTALL\rory3\rory3.ASF
:FULLY-SPECIFIED
:DEGREES
113
root 1.44528 16.6141 28.0761 32.3088 7.72657 0.18106
lowerback -17.5606 -3.48232 4.33835
upperback -11.7452 -5.16553 4.23994
thorax -2.78808 -2.71157 1.29766
lowerneck -20.3032 -0.518467 -1.18306
upperneck 38.9643 0.348755 -1.78666
head 17.9158 -0.328319 -0.553832
rclavicle 6.01821e-014 -3.97569e-015
rhumerus -13.9531 -9.39971 -15.428
rradius 27.1883
rwrist -1.0592
rhand 14.3446 7.20624
rfingers 7.12502
rthumb 39.2344 -18.2462
lclavicle 6.01821e-014 -3.97569e-015
lhumerus 36.2537 0.0825291 16.5258
lradius 49.5547
lwrist -3.08833
lhand 22.9994 12.6324
lfingers 7.12502
lthumb 47.3183 35.1571
rfemur -55.7897 3.66106 29.2679
rtibia 40.831
rfoot -51.366 -33.0704
rtoes 43.648
lfemur -11.5834 -3.96995 -24.9422
ltibia 30.0164
lfoot -4.96256 42.4006
ltoes 44.0573
114
root 1.43244 16.6138 28.08 32.3812 7.61232 0.151296
lowerback -17.5013 -3.46594 4.13041
upperback -11.8656 -5.10584 4.28121
thorax -2.92616 -2.67075 1.4752
lowerneck -20.1512 -0.530145 -1.17451
upperneck 39.0777 0.342229 -1.82766
head 17.9408 -0.335793 -0.576587
rclavicle 3.69864e-014 -7.95139e-015
rhumerus -14.1436 -9.33255 -15.2832
rradius 27.3411
rwrist -1.01027
rhand 14.3704 7.05992
rfingers 7.12502
rthumb 39.2587 -18.3855
lclavicle 3.69864e-014 -7.95139e-015
lhumerus 35.567 -0.78961 15.511
lradius 49.8869
lwrist -2.13809
lhand 22.0003 12.6514
lfingers 7.12502
lthumb 46.3937 35.5802
rfemur -55.8795 4.41061 28.8932
rtibia 40.8196
rfoot -52.1191 -33.3196
rtoes 44.0151
lfemur -11.681 -3.83576 -24.9143
ltibia 30.0024
lfoot -3.77535 42.3647
ltoes 43.3544
115
root 1.42358 16.6123 28.0838 32.4638 7.50349 0.312303
lowerback -17.3501 -3.51193 3.83331
upperback -12.0814 -5.10722 4.27779
thorax -3.21267 -2.65913 1.65862
lowerneck -19.8321 -0.540895 -1.31483
upperneck 39.2321 0.346066 -1.75638
head 17.9452 -0.345479 -0.518202
rclavicle 9.7479e-014 1.90833e-014
rhumerus -14.3204 -8.69365 -15.1924
rradius 27.6118
rwrist -1.37826
rhand 14.3018 6.98474
rfingers 7.12502
rthumb 39.1941 -18.4794
lclavicle 9.7479e-014 1.90833e-014
lhumerus 35.2745 -0.969798 15.7108
lradius 50.0069
lwrist -2.41811
lhand 21.9416 13.1846
lfingers 7.12502
lthumb 46.3394 36.1364
rfemur -55.9515 4.7315 28.5215
rtibia 40.8069
rfoot -52.3798 -33.4463
rtoes 44.1423
lfemur -11.7325 -3.79987 -25.0996
ltibia 29.9967
lfoot -3.62175 42.2319
ltoes 43.2604
116
root 1.42691 16.6145 28.0853 32.4347 7.60386 0.324545
lowerback -17.2343 -3.51524 3.94423
upperback -12.1309 -5.11643 4.24785
thorax -3.34067 -2.673 1.57626
lowerneck -19.7096 -0.547755 -1.36769
upperneck 39.3871 0.334641 -1.70769
head 18.0017 -0.351781 -0.490127
rclavicle 1.48467e-014 -2.22639e-014
rhumerus -14.473 -8.52735 -15.1418
rradius 27.8543
rwrist -1.55136
rhand 14.1815 7.03619
rfingers 7.12502
rthumb 39.0807 -18.4607
lclavicle 1.48467e-014 -2.22639e-014
lhumerus 34.7491 -1.69262 14.6745
lradius 50.406
lwrist -1.45785
lhand 21.4261 13.7176
lfingers 7.12502
lthumb 45.8612 36.8697
rfemur -55.9152 4.33096 28.7514
rtibia 40.7615
rfoot -51.8667 -33.728
rtoes 43.5681
lfemur -11.6982 -3.82355 -25.0886
ltibia 30.0208
lfoot -2.22549 42.2436
ltoes 42.2184
117
root 1.42879 16.6193 28.0887 32.4052 7.81112 0.17469
lowerback -17.2066 -3.49141 4.21997
upperback -12.1281 -5.1179 4.25416
thorax -3.37894 -2.68992 1.43344
lowerneck -19.6023 -0.54067 -1.32578
upperneck 39.473 0.341487 -1.74109
head 18.0229 -0.347578 -0.512371
rclavicle -8.69683e-017 -1.03368e-014
rhumerus -14.5695 -8.29867 -15.1204
rradius 27.8548
rwrist -1.69178
rhand 14.0347 6.96037
rfingers 7.12502
rthumb 38.9422 -18.5762
lclavicle -8.69683e-017 -1.03368e-014
lhumerus 34.5221 -1.89588 14.3393
lradius 50.4769
lwrist -1.14574
lhand 21.1485 13.6819
lfingers 7.12502
lthumb 45.6035 36.9397
rfemur -55.8871 3.97002 29.1616
rtibia 40.7378
rfoot -51.344 -34.1692
rtoes 42.7929
lfemur -11.6989 -3.93205 -24.8528
ltibia 30.024
lfoot 0.307063 42.2528
ltoes 40.0468
118
root 1.42779 16.6221 28.0903 32.4176 7.90689 0.211699
lowerback -17.1093 -3.49414 4.25114
upperback -12.1928 -5.11568 4.20806
thorax -3.50794 -2.69419 1.37925
lowerneck -19.4805 -0.5723 -1.36507
upperneck 39.5895 0.307528 -1.74264
head 18.0579 -0.367846 -0.514165
rclavicle 6.25426e-014 6.36111e-015
rhumerus -14.5443 -8.15869 -15.0628
rradius 27.5772
rwrist -1.79167
rhand 14.0763 6.81179
rfingers 7.12502
rthumb 38.9815 -18.7136
lclavicle 6.25426e-014 6.36111e-015
lhumerus 34.3531 -2.20214 13.9653
lradius 50.4839
lwrist -0.967072
lhand 20.7917 13.5062
lfingers 7.12502
lthumb 45.2719 36.8979
rfemur -55.8747 3.91937 29.1357
rtibia 40.7238
rfoot -51.347 -34.1679
rtoes 42.782
lfemur -11.7221 -4.01929 -24.8388
ltibia 30.0345
lfoot 1.92944 42.2123
ltoes 38.6664
119
root 1.42515 16.6233 28.095 32.4687 7.93693 0.337433
lowerback -16.9872 -3.48296 4.17359
upperback -12.3622 -5.07469 4.1016
thorax -3.76034 -2.67667 1.33487
lowerneck -19.0943 -0.653231 -1.43862
upperneck 39.6983 0.157363 -1.64131
head 18.0169 -0.423911 -0.483804
rclavicle -6.6742e-014 7.95139e-016
rhumerus -14.7193 -8.20684 -14.934
rradius 27.3641
rwrist -1.58284
rhand 14.2975 6.62025
rfingers 7.12502
rthumb 39.19 -18.8451
lclavicle -6.6742e-014 7.95139e-016
lhumerus 34.3842 -2.46744 13.869
lradius 50.3508
lwrist -0.915086
lhand 20.805 13.3682
lfingers 7.12502
lthumb 45.2842 36.7549
rfemur -55.8827 3.66655 29.1509
rtibia 40.7379
rfoot -51.3814 -33.6649
rtoes 43.2114
lfemur -11.7337 -3.9969 -24.9428
ltibia 30.0151
lfoot 3.60906 42.07
ltoes 37.3053
120
root 1.42248 16.6249 28.1011 32.4701 8.06312 0.32567
lowerback -16.9627 -3.49043 4.22401
upperback -12.4788 -5.08229 4.08092
thorax -3.90949 -2.68664 1.29415
lowerneck -18.4376 -0.688092 -1.59899
upperneck 39.5849 0.0745538 -1.47273
head 17.7775 -0.454536 -0.387775
rclavicle 4.03595e-014 -3.02153e-014
rhumerus -14.9334 -7.88946 -14.7811
rradius 27.3237
rwrist -1.82494
rhand 14.2465 6.78489
rfingers 7.12502
rthumb 39.1419 -18.6943
lclavicle 4.03595e-014 -3.02153e-014
lhumerus 34.4271 -2.70451 13.7169
lradius 50.1862
lwrist -0.548482
lhand 20.9319 13.2773
lfingers 7.12502
lthumb 45.4022 36.6167
rfemur -55.8579 3.55443 29.2527
rtibia 40.7528
rfoot -51.4641 -33.4729
rtoes 43.3176
lfemur -11.6754 -4.0935 -24.8908
ltibia 29.9755
lfoot 3.82669 42.0098
ltoes 36.8933
121
root 1.41784 16.6278 28.1067 32.4275 8.0495 0.444051
lowerback -16.9205 -3.51616 4.05313
upperback -12.5183 -5.09081 4.02339
thorax -3.96327 -2.68307 1.3316
lowerneck -18.0529 -0.700683 -1.66393
upperneck 39.5667 0.0293038 -1.37985
head 17.6658 -0.46798 -0.33971
rclavicle -1.41774e-014 -7.15625e-015
rhumerus -15.0399 -8.176 -14.65
rradius 27.1918
rwrist -1.48896
rhand 14.2511 7.26901
rfingers 7.12502
rthumb 39.1463 -18.209
lclavicle -1.41774e-014 -7.15625e-015
lhumerus 34.3854 -3.12028 13.223
lradius 50.1341
lwrist 0.110973
lhand 20.6458 13.474
lfingers 7.12502
lthumb 45.1362 36.9197
rfemur -55.8487 3.59132 29.0917
rtibia 40.8168
rfoot -51.4284 -33.931
rtoes 42.817
lfemur -11.5186 -4.1517 -25.0196
ltibia 29.8532
lfoot 3.6656 42.0988
ltoes 36.9892
122
root 1.41278 16.6286 28.1118 32.4331 8.07086 0.50783
lowerback -16.9522 -3.53154 3.95327
upperback -12.5203 -5.10037 3.99047
thorax -3.94217 -2.68246 1.34828
lowerneck -17.9239 -0.718364 -1.71693
upperneck 39.574 -0.00565473 -1.32141
head 17.6361 -0.481305 -0.309541
rclavicle -1.55355e-014 2.70347e-014
rhumerus -15.1308 -8.42818 -14.5457
rradius 27.184
rwrist -1.30654
rhand 14.4273 7.31449
rfingers 7.12502
rthumb 39.3123 -18.1154
lclavicle -1.55355e-014 2.70347e-014
lhumerus 34.4616 -2.9562 13.4134
lradius 50.1052
lwrist -0.0668618
lhand 21.0747 13.8961
lfingers 7.12502
lthumb 45.5349 37.1819
rfemur -55.8709 3.78069 28.9033
rtibia 40.8448
rfoot -51.4826 -34.3425
rtoes 42.5129
lfemur -11.4501 -4.15054 -25.0805
ltibia 29.7525
lfoot 2.55712 42.2779
ltoes 38.0439
123
root 1.41179 16.624 28.1169 32.4769 8.13065 0.6866
lowerback -16.9868 -3.56009 3.82753
upperback -12.5493 -5.12273 3.92502
thorax -3.95006 -2.68842 1.34493
lowerneck -17.854 -0.788933 -1.83945
upperneck 39.6238 -0.0906955 -1.27125
head 17.6468 -0.527306 -0.281592
rclavicle -3.6418e-014 3.18055e-014
rhumerus -15.2201 -8.86764 -14.3953
rradius 27.1092
rwrist -0.806421
rhand 14.5638 7.27531
rfingers 7.12502
rthumb 39.4409 -18.117
lclavicle -3.6418e-014 3.18055e-014
lhumerus 34.2715 -3.17446 13.1377
lradius 50.2348
lwrist 0.367427
lhand 21.0083 14.0534
lfingers 7.12502
lthumb 45.4732 37.3641
rfemur -55.9047 3.59491 28.7814
rtibia 40.9026
rfoot -52.3092 -32.9679
rtoes 44.0472
lfemur -11.3432 -4.16875 -25.2382
ltibia 29.6271
lfoot -1.18505 42.2647
ltoes 41.2724
124
root 1.40852 16.6203 28.1177 32.4811 8.34741 0.444745
lowerback -17.0776 -3.51329 4.12556
upperback -12.5077 -5.10349 3.96272
thorax -3.88343 -2.69459 1.21483
lowerneck -17.7708 -0.861779 -1.89897
upperneck 39.5695 -0.191719 -1.25196
head 17.5949 -0.573656 -0.280848
rclavicle 9.516e-014 -1.90833e-014
rhumerus -15.2664 -9.18728 -14.2815
rradius 27.0161
rwrist -0.615746
rhand 14.5943 7.4397
rfingers 7.12502
rthumb 39.4697 -17.9442
lclavicle 9.516e-014 -1.90833e-014
lhumerus 34.5133 -2.80588 13.6089
lradius 49.9552
lwrist -0.169926
lhand 21.3569 14.0573
lfingers 7.12502
lthumb 45.797 37.2359
rfemur -55.9075 3.54349 29.1574
rtibia 40.9114
rfoot -53.7385 -30.8228
rtoes 46.3393
lfemur -11.3162 -4.16479 -24.8935
ltibia 29.5542
lfoot -3.91446 41.9981
ltoes 43.2063
125
root 1.40406 16.6168 28.1165 32.5197 8.40618 0.326862
lowerback -17.4292 -3.47593 4.21475
upperback -12.2172 -5.10089 3.96643
thorax -3.38874 -2.6904 1.12652
lowerneck -18.0671 -0.895246 -1.98639
upperneck 39.4472 -0.258546 -1.11055
head 17.6038 -0.59242 -0.213806
rclavicle 2.03009e-014 2.3059e-014
rhumerus -15.07 -10.0172 -14.3097
rradius 26.8894
rwrist -0.327022
rhand 14.5679 7.43157
rfingers 7.12502
rthumb 39.4448 -17.9596
lclavicle 2.03009e-014 2.3059e-014
lhumerus 34.7174 -2.37293 13.5276
lradius 49.7794
lwrist -0.207106
lhand 21.2017 14.093
lfingers 7.12502
lthumb 45.6528 37.3307
rfemur -55.9906 3.70823 29.2442
rtibia 40.9382
rfoot -54.3758 -30.1676
rtoes 47.099
lfemur -11.3166 -4.23202 -24.7604
ltibia 29.4795
lfoot -8.62289 41.5793
ltoes 45.866
126
root 1.4013 16.6181 28.1149 32.5231 8.39666 0.394675
lowerback -17.6725 -3.44808 4.11221
upperback -11.8872 -5.08188 3.93396
thorax -2.89209 -2.66693 1.1133
lowerneck -18.5192 -0.946766 -2.16348
upperneck 39.344 -0.306248 -0.978304
head 17.6654 -0.618247 -0.132354
rclavicle 4.78201e-014 2.14687e-014
rhumerus -14.9191 -10.9367 -14.2524
rradius 26.8175
rwrist -0.0224729
rhand 14.6065 7.25487
rfingers 7.12502
rthumb 39.4812 -18.1256
lclavicle 4.78201e-014 2.14687e-014
lhumerus 34.9449 -1.72814 13.7433
lradius 49.5647
lwrist -0.494146
lhand 21.0477 13.8771
lfingers 7.12502
lthumb 45.5098 37.173
rfemur -55.9985 3.68757 29.1659
rtibia 40.9106
rfoot -54.3338 -30.2322
rtoes 47.1851
lfemur -11.325 -4.20331 -24.8361
ltibia 29.5193
lfoot -11.5937 41.1088
ltoes 47.4403
